<mxfile host="Electron" modified="2024-04-13T06:54:11.597Z" agent="Mozilla/5.0 (Macintosh; Intel Mac OS X 10_15_7) AppleWebKit/537.36 (KHTML, like Gecko) draw.io/23.1.5 Chrome/120.0.6099.109 Electron/28.1.0 Safari/537.36" etag="34iLYBi99qfPJjK1li8B" version="23.1.5" type="device">
  <diagram name="第 1 页" id="MJyA3dxcYl1krShd2FW4">
    <mxGraphModel dx="1025" dy="854" grid="0" gridSize="10" guides="1" tooltips="1" connect="1" arrows="1" fold="1" page="1" pageScale="1" pageWidth="600" pageHeight="600" math="0" shadow="0">
      <root>
        <mxCell id="0" />
        <mxCell id="1" parent="0" />
        <mxCell id="iNgNMbceGPKODVHs5F1Z-4" value="&lt;font style=&quot;font-size: 14px;&quot;&gt;数据类型&lt;/font&gt;" style="text;html=1;align=center;verticalAlign=middle;resizable=0;points=[];autosize=1;strokeColor=none;fillColor=none;" parent="1" vertex="1">
          <mxGeometry x="217" y="171" width="74" height="29" as="geometry" />
        </mxCell>
        <mxCell id="iNgNMbceGPKODVHs5F1Z-5" value="&lt;font style=&quot;font-size: 14px;&quot;&gt;数据值&lt;/font&gt;" style="text;html=1;align=center;verticalAlign=middle;resizable=0;points=[];autosize=1;strokeColor=none;fillColor=none;" parent="1" vertex="1">
          <mxGeometry x="397" y="171" width="60" height="29" as="geometry" />
        </mxCell>
        <mxCell id="BeC54UquazCiQsA2f5lK-1" style="edgeStyle=orthogonalEdgeStyle;rounded=0;orthogonalLoop=1;jettySize=auto;html=1;strokeColor=#FF3333;" parent="1" source="iNgNMbceGPKODVHs5F1Z-6" target="iNgNMbceGPKODVHs5F1Z-15" edge="1">
          <mxGeometry relative="1" as="geometry" />
        </mxCell>
        <mxCell id="iNgNMbceGPKODVHs5F1Z-6" value="Int32" style="rounded=0;whiteSpace=wrap;html=1;" parent="1" vertex="1">
          <mxGeometry x="221" y="371" width="73" height="60" as="geometry" />
        </mxCell>
        <mxCell id="BeC54UquazCiQsA2f5lK-3" style="edgeStyle=orthogonalEdgeStyle;rounded=0;orthogonalLoop=1;jettySize=auto;html=1;exitX=1;exitY=0.5;exitDx=0;exitDy=0;entryX=0.5;entryY=0;entryDx=0;entryDy=0;strokeColor=#FF3333;" parent="1" source="iNgNMbceGPKODVHs5F1Z-7" target="iNgNMbceGPKODVHs5F1Z-18" edge="1">
          <mxGeometry relative="1" as="geometry">
            <Array as="points">
              <mxPoint x="316" y="341" />
              <mxPoint x="316" y="437" />
              <mxPoint x="417" y="437" />
            </Array>
          </mxGeometry>
        </mxCell>
        <mxCell id="iNgNMbceGPKODVHs5F1Z-7" value="Int64" style="rounded=0;whiteSpace=wrap;html=1;" parent="1" vertex="1">
          <mxGeometry x="221" y="311" width="73" height="60" as="geometry" />
        </mxCell>
        <mxCell id="iNgNMbceGPKODVHs5F1Z-8" value="Float" style="rounded=0;whiteSpace=wrap;html=1;" parent="1" vertex="1">
          <mxGeometry x="221" y="251" width="73" height="60" as="geometry" />
        </mxCell>
        <mxCell id="iNgNMbceGPKODVHs5F1Z-9" value="&lt;font style=&quot;font-size: 16px;&quot;&gt;...&lt;/font&gt;" style="text;html=1;align=center;verticalAlign=middle;resizable=0;points=[];autosize=1;" parent="1" vertex="1">
          <mxGeometry x="242" y="214" width="31" height="31" as="geometry" />
        </mxCell>
        <mxCell id="BeC54UquazCiQsA2f5lK-4" style="edgeStyle=orthogonalEdgeStyle;rounded=0;orthogonalLoop=1;jettySize=auto;html=1;strokeColor=#3333FF;" parent="1" source="iNgNMbceGPKODVHs5F1Z-10" target="iNgNMbceGPKODVHs5F1Z-17" edge="1">
          <mxGeometry relative="1" as="geometry" />
        </mxCell>
        <mxCell id="iNgNMbceGPKODVHs5F1Z-10" value="2" style="rounded=0;whiteSpace=wrap;html=1;" parent="1" vertex="1">
          <mxGeometry x="388" y="371" width="73" height="60" as="geometry" />
        </mxCell>
        <mxCell id="BeC54UquazCiQsA2f5lK-5" style="edgeStyle=orthogonalEdgeStyle;rounded=0;orthogonalLoop=1;jettySize=auto;html=1;entryX=0.5;entryY=0;entryDx=0;entryDy=0;exitX=1;exitY=0.5;exitDx=0;exitDy=0;strokeColor=#3333FF;" parent="1" source="iNgNMbceGPKODVHs5F1Z-11" target="iNgNMbceGPKODVHs5F1Z-19" edge="1">
          <mxGeometry relative="1" as="geometry" />
        </mxCell>
        <mxCell id="iNgNMbceGPKODVHs5F1Z-11" value="40012" style="rounded=0;whiteSpace=wrap;html=1;" parent="1" vertex="1">
          <mxGeometry x="388" y="311" width="73" height="60" as="geometry" />
        </mxCell>
        <mxCell id="iNgNMbceGPKODVHs5F1Z-12" value="3.5" style="rounded=0;whiteSpace=wrap;html=1;" parent="1" vertex="1">
          <mxGeometry x="388" y="251" width="73" height="60" as="geometry" />
        </mxCell>
        <mxCell id="iNgNMbceGPKODVHs5F1Z-13" value="&lt;font style=&quot;font-size: 16px;&quot;&gt;...&lt;/font&gt;" style="text;html=1;align=center;verticalAlign=middle;resizable=0;points=[];autosize=1;" parent="1" vertex="1">
          <mxGeometry x="406" y="214" width="31" height="31" as="geometry" />
        </mxCell>
        <mxCell id="iNgNMbceGPKODVHs5F1Z-15" value="Int32&lt;br&gt;（byte：1）" style="rounded=1;whiteSpace=wrap;html=1;" parent="1" vertex="1">
          <mxGeometry x="217" y="491" width="80" height="60" as="geometry" />
        </mxCell>
        <mxCell id="iNgNMbceGPKODVHs5F1Z-17" value="2&lt;br&gt;（00 02）" style="rounded=1;whiteSpace=wrap;html=1;" parent="1" vertex="1">
          <mxGeometry x="297" y="491" width="80" height="60" as="geometry" />
        </mxCell>
        <mxCell id="iNgNMbceGPKODVHs5F1Z-18" value="Int64&lt;br&gt;（byte：2）" style="rounded=1;whiteSpace=wrap;html=1;" parent="1" vertex="1">
          <mxGeometry x="377" y="491" width="80" height="60" as="geometry" />
        </mxCell>
        <mxCell id="iNgNMbceGPKODVHs5F1Z-19" value="40012&lt;br&gt;（00 00&amp;nbsp;9c 4c)" style="rounded=1;whiteSpace=wrap;html=1;" parent="1" vertex="1">
          <mxGeometry x="457" y="491" width="83" height="60" as="geometry" />
        </mxCell>
        <mxCell id="iNgNMbceGPKODVHs5F1Z-27" value="&lt;font style=&quot;font-size: 16px;&quot;&gt;...&lt;/font&gt;" style="text;html=1;align=center;verticalAlign=middle;resizable=0;points=[];autosize=1;" parent="1" vertex="1">
          <mxGeometry x="556" y="504" width="31" height="31" as="geometry" />
        </mxCell>
        <mxCell id="BeC54UquazCiQsA2f5lK-6" value="&lt;font style=&quot;font-size: 14px;&quot;&gt;字节流&lt;/font&gt;" style="text;html=1;align=center;verticalAlign=middle;resizable=0;points=[];autosize=1;strokeColor=none;fillColor=none;" parent="1" vertex="1">
          <mxGeometry x="150" y="506.5" width="60" height="29" as="geometry" />
        </mxCell>
        <mxCell id="LtBqkne1bXCgqzZ9Jyg6-5" value="List&amp;lt;Timestamp&amp;gt;" style="text;html=1;align=center;verticalAlign=middle;whiteSpace=wrap;rounded=0;" vertex="1" parent="1">
          <mxGeometry x="51" y="81" width="60" height="30" as="geometry" />
        </mxCell>
        <mxCell id="LtBqkne1bXCgqzZ9Jyg6-7" value="List&amp;lt;DeviceID&amp;gt;" style="text;html=1;align=center;verticalAlign=middle;whiteSpace=wrap;rounded=0;" vertex="1" parent="1">
          <mxGeometry x="51" y="33" width="60" height="30" as="geometry" />
        </mxCell>
        <mxCell id="LtBqkne1bXCgqzZ9Jyg6-8" value="List&amp;lt;List&amp;lt;MeasurementID&amp;gt;&amp;gt;" style="text;html=1;align=center;verticalAlign=middle;whiteSpace=wrap;rounded=0;" vertex="1" parent="1">
          <mxGeometry x="51" y="57" width="60" height="30" as="geometry" />
        </mxCell>
        <mxCell id="LtBqkne1bXCgqzZ9Jyg6-13" style="edgeStyle=orthogonalEdgeStyle;rounded=0;orthogonalLoop=1;jettySize=auto;html=1;" edge="1" parent="1" target="iNgNMbceGPKODVHs5F1Z-4">
          <mxGeometry relative="1" as="geometry">
            <mxPoint x="141" y="147" as="sourcePoint" />
          </mxGeometry>
        </mxCell>
        <mxCell id="LtBqkne1bXCgqzZ9Jyg6-10" value="List&amp;lt;List&amp;lt;DataType&amp;gt;&amp;gt;" style="text;html=1;align=center;verticalAlign=middle;whiteSpace=wrap;rounded=0;" vertex="1" parent="1">
          <mxGeometry x="51" y="132" width="60" height="30" as="geometry" />
        </mxCell>
        <mxCell id="LtBqkne1bXCgqzZ9Jyg6-14" style="edgeStyle=orthogonalEdgeStyle;rounded=0;orthogonalLoop=1;jettySize=auto;html=1;" edge="1" parent="1" target="iNgNMbceGPKODVHs5F1Z-5">
          <mxGeometry relative="1" as="geometry">
            <mxPoint x="133" y="120" as="sourcePoint" />
          </mxGeometry>
        </mxCell>
        <mxCell id="LtBqkne1bXCgqzZ9Jyg6-11" value="List&amp;lt;List&amp;lt;Value&amp;gt;&amp;gt;" style="text;html=1;align=center;verticalAlign=middle;whiteSpace=wrap;rounded=0;" vertex="1" parent="1">
          <mxGeometry x="51" y="105" width="60" height="30" as="geometry" />
        </mxCell>
        <mxCell id="LtBqkne1bXCgqzZ9Jyg6-12" value="传入参数" style="text;html=1;align=center;verticalAlign=middle;whiteSpace=wrap;rounded=0;" vertex="1" parent="1">
          <mxGeometry x="51" y="8" width="60" height="30" as="geometry" />
        </mxCell>
        <mxCell id="LtBqkne1bXCgqzZ9Jyg6-15" value="其中一行" style="text;html=1;align=center;verticalAlign=middle;resizable=0;points=[];autosize=1;strokeColor=none;fillColor=none;" vertex="1" parent="1">
          <mxGeometry x="236" y="97" width="66" height="26" as="geometry" />
        </mxCell>
        <mxCell id="LtBqkne1bXCgqzZ9Jyg6-16" value="其中一行" style="text;html=1;align=center;verticalAlign=middle;resizable=0;points=[];autosize=1;strokeColor=none;fillColor=none;" vertex="1" parent="1">
          <mxGeometry x="173" y="126" width="66" height="26" as="geometry" />
        </mxCell>
      </root>
    </mxGraphModel>
  </diagram>
</mxfile>
